<svg xmlns="http://www.w3.org/2000/svg" width="256" height="256"><path fill-opacity=".016" d="M0 128.004v128.004l128.25-.254 128.25-.254.254-127.75L257.008 0H0v128.004m.485.496c0 70.4.119 99.053.265 63.672.146-35.38.146-92.98 0-128C.604 29.153.485 58.1.485 128.5" fill="#1976D2" fill-rule="evenodd"/><path fill-opacity=".358" d="M32.667.667C32.3 1.033 32 24.846 32 53.583c0 40.91.271 52.342 1.25 52.671 1 .336 1 1.117 0 3.904-.782 2.178-1.237 8.705-1.214 17.413l.036 13.929 2.252-2.75c3.71-4.532 9.923-2.577 6.948 2.186-.749 1.199-.605 3.354.51 7.633.854 3.279 1.259 7.079.901 8.446-.359 1.367-2.886 4.285-5.618 6.485l-4.965 4-.05 44.25L32 256h192.233l-.685-2.75c-.377-1.512-.905-6.35-1.174-10.75-.268-4.4-1.104-10.397-1.856-13.326-1.773-6.904-1.046-12.125 1.593-11.435 1.721.45 1.889-.137 1.889-6.622 0-6.479-.181-7.117-2.025-7.117-1.253 0-2.396-.977-3-2.565-1.428-3.758-1.273-4.125 2.025-4.785 3.251-.65 3.894-2.663 1.488-4.66-1.211-1.005-1.268-1.55-.285-2.734.839-1.012 1.286-6.58 1.412-17.618.102-8.907-.106-13.674-.465-10.638l-.65 5.5-5.469-.154c-4.572-.129-5.843-.589-7.75-2.806-2.599-3.021-2.794-4.986-.844-8.508 1.225-2.213 1.15-2.656-.73-4.286-2.536-2.2-5.266-1.849-5.05.649.173 2.015.259 2.088-5.624-4.795-3.12-3.651-4.024-5.436-3.544-7 .355-1.155.785-3.876.956-6.047.502-6.348 8.505-11.676 9.845-6.553.896 3.427 2.71 2.192 2.71-1.845 0-5.888 2.401-7.49 10.46-6.977 3.597.229 6.54.235 6.54.013 0-.222-1.129-1.291-2.51-2.377-2.74-2.156-2.487-3.814.583-3.814 1.908 0 1.954-.93 1.877-38.094-.077-37.401-.51-42.931-3.361-42.891-1.538.022-2.913 1.165-4.19 3.485-.605 1.1-2.293 2.142-3.75 2.316-2.937.351-3.45-.906-1.149-2.816.825-.685 1.5-1.591 1.5-2.013 0-1.255-7.358-1.751-9.194-.62-1.276.787-2.169.614-3.62-.698-1.73-1.566-1.796-2.119-.651-5.447.814-2.37 2.051-3.888 3.433-4.214 1.188-.281 2.918-1.777 3.846-3.325 1.588-2.652 1.584-2.89-.064-4.109-.963-.712-1.75-2.257-1.75-3.434s-.338-2.15-.75-2.162c-.412-.012-1.875-.924-3.25-2.025-1.375-1.102-2.05-1.903-1.5-1.78 1.797.401 5.303-1.216 5.876-2.711C205.861.198 201.494 0 173.068 0h-32.87l-1.849 4.496c-1.87 4.547-3.67 5.715-4.695 3.045-.308-.803-2.044-1.852-3.857-2.331-2.491-.659-3.278-1.402-3.218-3.041l.08-2.169H79.996C54.332 0 33.033.3 32.667.667m5.353 5.809c-.789.95-.865 1.524-.201 1.524 1.208 0 2.617-1.897 1.924-2.591-.252-.251-1.027.229-1.723 1.067M177 36.071c0 1.444 2.614 3.982 3.346 3.25.784-.784-1.165-4.321-2.381-4.321-.531 0-.965.482-.965 1.071m19.594 53.825c-1.642 1.814-1.577 1.966 1.499 3.5 5.965 2.976 7.524 1.797 3.625-2.74-2.72-3.166-2.919-3.196-5.124-.76m6.082 28.019c-1.003.365-1.803 1.067-1.777 1.561.079 1.53 3.193 1.449 3.786-.099.732-1.907.227-2.276-2.009-1.462M57.934 132.123c-1.08 2.019 1.316 3.877 5 3.877 1.191 0 2.066.65 2.066 1.535 0 1.234.399 1.322 2.033.448 2.024-1.084 2.023-1.1-.25-3.925-2.813-3.496-7.469-4.514-8.849-1.935m143.762.585c-.778 1.297-.626 8.787.205 10.131.584.945 1.834 1 5.184.228 6.163-1.421 7.915-1.31 7.915.499 0 1.119.786 1.476 2.75 1.25 2.122-.244 2.672-.773 2.41-2.316-.187-1.1-1.074-2.819-1.97-3.821-.896-1.002-1.642-2.802-1.659-4-.029-2.005-.602-2.202-7.196-2.471-3.941-.161-7.378.064-7.639.5M45.5 134c-.34.55.084 1 .941 1S48 134.55 48 134s-.423-1-.941-1-1.219.45-1.559 1m-8.5 9c0 .55.45 1 1 1s1-.45 1-1-.45-1-1-1-1 .45-1 1m9.75.798c-2.154.429-2.233 1.556-.226 3.222 1.83 1.519 2.758.831 2.307-1.709-.206-1.16-.991-1.73-2.081-1.513m176.329 4.785c.048 1.165.285 1.402.604.605.289-.722.253-1.585-.079-1.917-.332-.332-.568.258-.525 1.312m-29.051 47.883c-.669.807-1.062 1.917-.873 2.468.19.55.865-.11 1.501-1.467 1.318-2.813 1.127-3.116-.628-1.001M190.272 201c0 2.475.195 3.488.434 2.25.238-1.238.238-3.262 0-4.5-.239-1.238-.434-.225-.434 2.25m-5.272-.607c0 .766.685 1.656 1.523 1.978 1.243.476 1.328.22.465-1.394-1.241-2.318-1.988-2.537-1.988-.584m10 1c0 .216.698.661 1.552.989.89.341 1.291.173.941-.393-.587-.951-2.493-1.406-2.493-.596m-25.128 2.357c-1.192 1.521-1.175 1.604.128.634.825-.613 2.175-1.365 3-1.671 1.255-.464 1.234-.568-.128-.634-.895-.043-2.245.708-3 1.671M195.5 207c-1.63.701-1.688.872-.309.93.93.038 1.969-.38 2.309-.93.711-1.15.676-1.15-2 0m-5.769 2.08c.354 1.352.807 1.806 1.057 1.057.24-.722-.038-1.787-.62-2.369-.742-.742-.872-.351-.437 1.312m-18.173-.173c-.309.498.34.671 1.441.383 2.335-.611 2.63-1.29.56-1.29-.793 0-1.693.408-2.001.907m5.915 1.009c.335 1.054.14 2.205-.432 2.559-.573.354-1.034 1.179-1.026 1.834.01.783.315.719.889-.187.48-.758 1.355-1.08 1.944-.716.761.47.765-.218.014-2.372-1.142-3.275-2.393-4.283-1.389-1.118m-6.205 3.501c.127 1.055.907 2.101 1.732 2.326.965.263 1.107.114.4-.417-.605-.454-1.385-1.501-1.732-2.326-.445-1.054-.564-.93-.4.417M196 229.941c0 .518.445 1.216.989 1.552.566.35.734-.051.393-.941-.665-1.732-1.382-2.049-1.382-.611" fill="#1976D2" fill-rule="evenodd"/><path fill-opacity=".224" d="M79.441 1.532C80.509 2.339 81.971 3 82.691 3c.72 0 1.319 1.012 1.331 2.25l.022 2.25 1.869-2.431c2.453-3.191.729-5.081-4.592-5.037-3.577.03-3.697.125-1.88 1.5m70.892-.032c0 .825.525 1.5 1.167 1.5s1.167-.675 1.167-1.5S152.142 0 151.5 0s-1.167.675-1.167 1.5M159.5.713C156.485 1.438 155.24 3 157.678 3c1.142 0 2.637-.675 3.322-1.5s1.077-1.448.872-1.384c-.204.064-1.272.332-2.372.597M50 4.811C50 5.654 53.763 10 54.492 10c.228 0-.352-1.347-1.289-2.994C51.58 4.153 50 3.071 50 4.811m101.735 1.191C149.668 7.11 148 7.527 148 6.936c0-.588-1.197-.926-2.661-.752-3.173.377-3.942 3.24-1.765 6.566.809 1.238 1.124 2.251.699 2.253-.425.001-1.641 1.298-2.702 2.882-1.555 2.322-2.881 2.992-6.856 3.462-2.71.321-5.554 1.105-6.321 1.741-.872.724-1.394.772-1.394.128 0-1.236-3.676-.418-6.609 1.471-2.49 1.604-5.378.781-5.423-1.544-.052-2.716-2.527-5.143-5.245-5.143-1.406 0-2.755-.563-2.997-1.25-.332-.941-1.194-.818-3.488.5-1.676.962-3.935 1.75-5.02 1.75-2.4 0-4.799-2.523-3.287-3.457C96.595 14.514 93.807 11 91.327 11c-1.314 0-2.447.801-2.827 2-.764 2.408-1.381 2.472-4.277.443-1.246-.872-2.223-1.092-2.223-.5 0 1.343-4.675 1.391-5.5.057-.34-.55-1.941-1-3.559-1-2.444 0-2.941.409-2.941 2.418 0 1.33-.296 3.189-.657 4.13-.581 1.515-.082 1.65 4.341 1.175 5.432-.584 6.661-.147 7.11 2.527.388 2.311-4.323 2.413-5.606.122-.602-1.076-1.141-1.257-1.588-.533-.39.63-2.043.86-3.889.541l-3.211-.554 4.211 4.087c2.316 2.248 4.791 4.086 5.5 4.084.709-.001 2.189-1.35 3.289-2.997 1.1-1.647 2.75-2.996 3.667-2.997.916-.002 1.852-.56 2.079-1.241.328-.985.97-.985 3.13 0 1.495.681 3.57 1.238 4.612 1.238 2.724 0 3.468 1.839 1.586 3.918-.902.997-1.342 2.523-.991 3.437.363.947.136 1.645-.535 1.645-.641 0-.922-.395-.623-.878.298-.483-.89-1.165-2.641-1.515-7.299-1.46-7.658 6.238-.454 9.761 3.65 1.785 4.005 1.792 7.995.147 2.296-.946 4.962-2.128 5.925-2.626 3.354-1.736 1.676 2.795-3.373 9.111-1.539 1.925-3.428 5.3-4.198 7.5-1.905 5.445-1.686 21.582.327 24.007 1.353 1.63 1.295 1.723-.681 1.096-1.873-.594-2.081-.381-1.569 1.606.325 1.26 1.3 2.887 2.168 3.615.867.728.964 1.009.217.624-1.094-.564-1.22.154-.647 3.675.709 4.358 2.463 7.678 2.55 4.827.025-.797.932.231 2.016 2.285 1.19 2.253 2.958 3.982 4.456 4.358 1.501.377 2.484 1.34 2.484 2.434 0 2.878-1.098 4.973-2.607 4.973-.766 0-1.34.338-1.275.75.066.413.019 4.35-.102 8.75l-.221 8-1.338-8c-.735-4.4-1.602-9.424-1.926-11.163l-.589-3.164-4.471 2.499C92.012 107.047 90 107.914 90 107.6c0-.315-2.588.389-5.75 1.563-6.295 2.338-17.713 9.965-19.269 12.873-2.017 3.768-.589 10.342 2.665 12.264 2.634 1.555 1.268 3.363-6.406 8.478C54.084 147.548 41.486 159 43.394 159c.454 0-1.923 2.024-5.284 4.498-3.36 2.474-6.11 4.975-6.11 5.559 0 .584.403.812.895.508.493-.305 1.153.119 1.469.941.344.896.001 1.494-.857 1.494-1.217 0-1.439 6.266-1.485 42l-.054 42h192.265l-.726-2.25c-.399-1.238-1.147-5.85-1.662-10.25-.515-4.4-1.394-10.25-1.954-13-1.295-6.367-1.297-6.439-.383-16.177.617-6.57.445-8.982-.87-12.27-.901-2.252-1.647-6.447-1.659-9.323-.036-9.196-2.302-16.777-8.419-28.172-7.816-14.558-18.161-25.408-26.81-28.12-7.861-2.465-7.79-6.48.143-8.067 2.239-.447 3.101-1.126 2.867-2.255-.259-1.251-1.383-1.563-4.972-1.381l-4.637.235-1.608-4.841c-.885-2.663-2.658-5.828-3.94-7.033l-2.332-2.19-.618 3.866c-1.303 8.147-11.363 23.019-17.788 26.297-5.422 2.766-6.867 2.567-5.936-.819.46-1.676 1.351-2.647 2.28-2.487 1.926.333 3.217-1.29 4.704-5.908.914-2.841 1.591-3.536 3.066-3.15 1.534.401 2.039-.236 2.662-3.355l.87-4.35c.056-.275.498-2.075.981-4 .484-1.925.953-4.85 1.042-6.5.363-6.675 1.547-8.941 5.748-11 2.515-1.233 4.779-3.337 5.9-5.484L172 90.531l.015 2.985c.009 1.641.346 3.434.75 3.984 1.076 1.464 5.286 1.702 6.868.389 1.854-1.538 4.128.41 5.169 4.428.552 2.128 1.599 3.28 3.425 3.768 3.773 1.009 7.45 4.638 6.083 6.005-.772.772-2.745.654-6.934-.412-3.892-.992-6.446-1.176-7.616-.55-2.156 1.154-2.265 3.208-.26 4.872.825.685 1.5 1.865 1.5 2.622 0 .822 1.063 1.378 2.634 1.378 3.567 0 10.412-2.117 9.839-3.044-.718-1.161 2.685-2.256 6.277-2.018 3.897.258 4.114-.827.75-3.751-2.76-2.4-3.233-5.334-1.14-7.071 2.136-1.773.849-6.262-1.737-6.06-5.625.439-7.823-.103-8.333-2.056-.288-1.1-.921-2-1.407-2-1.96 0-.708-1.867 1.867-2.784 1.512-.54 3.875-1.975 5.25-3.19 2.126-1.878 3.226-2.113 7.352-1.569 3.599.474 5.48.228 7.282-.953 1.336-.875 2.195-1.971 1.909-2.435-.287-.463.149-1.398.968-2.078.819-.68 1.482-1.968 1.474-2.863-.01-1.065-.27-1.233-.75-.487-.769 1.194-10.218 1.361-10.229.182-.006-.664 2.94-3.122 6.636-5.538 1.636-1.069 1.679-1.368.358-2.5-.825-.707-1.526-1.735-1.557-2.285-.134-2.351-2.542-6.601-4.073-7.188-.978-.375-2.139.019-2.826.959-1.712 2.34-5.942 3.083-9.977 1.751-4.186-1.381-5.16-2.603-3.586-4.499.898-1.082.696-1.846-.914-3.456C185.93 53.93 184.25 53 183.333 53c-.916 0-1.371-.295-1.01-.656.36-.361 3.426-.751 6.812-.868 4.772-.164 6.518-.659 7.761-2.199.882-1.093 2.423-2.275 3.423-2.627 1.344-.473 1.643-1.229 1.145-2.895-1.177-3.943-4.175-6.13-9.194-6.707-3.69-.424-4.993-1.057-5.757-2.798-.543-1.237-1.5-2.25-2.128-2.25-.627 0-1.7-.675-2.385-1.5-.685-.825-1.79-1.5-2.455-1.5-1.844 0-1.117 4.454.787 4.823 2.27.44 3.188 4.74 1.706 7.993-1.011 2.22-.96 2.831.305 3.629 1.214.765.778 1.215-2.158 2.224-3.161 1.087-3.891 1.042-5.182-.322-1.143-1.207-1.204-1.698-.253-2.05.688-.255 1.25-1.575 1.25-2.932 0-1.844-.759-2.734-3-3.515-3.342-1.165-3.39-1.253-2.047-3.762 1.308-2.443-3.128-5.57-8.453-5.96-2.2-.16-4.427-.705-4.95-1.21-.522-.505-1.705-.918-2.628-.918-.922 0-2.237-.675-2.922-1.5s-2.063-1.5-3.063-1.5c-2.179 0-3.809-2.209-2.061-2.792 2.098-.699 6.124-5.596 6.124-7.448 0-1.332.82-1.76 3.374-1.76C159.726 12 169 16.41 169 18.004c0 2.78-1.246 3.491-5.527 3.15-5.873-.467-7.456.194-6.769 2.823.491 1.876 1.11 2.051 5.848 1.644 4.075-.349 5.43-.11 5.87 1.037.481 1.252.996 1.158 3.21-.583 1.451-1.141 3.365-2.09 4.253-2.108.888-.019 2.696-.933 4.016-2.033 2.203-1.835 2.29-2.224 1.046-4.717-.746-1.494-2.211-3.696-3.256-4.893-1.045-1.197-1.621-2.628-1.279-3.181.341-.553.182-1.276-.355-1.608-1.118-.691-5.168 1.357-6.357 3.215-1.906 2.98-6.938.481-8.053-4-.853-3.423-4.419-3.692-9.912-.748m29.433 3.685c-2.391 4.466-.073 6.075 3.332 2.313 1.554-1.717 1.588-2 .238-2-.864 0-1.758-.561-1.987-1.247-.259-.778-.856-.426-1.583.934m9.832.206c0 .491.675 1.152 1.5 1.469.825.316 1.5 1.264 1.5 2.107 0 1.051.988 1.531 3.155 1.531h3.155l-1.905-2.25c-1.048-1.238-2.355-2.581-2.905-2.985-1.405-1.032-4.5-.944-4.5.128m-92.45 1.026c-.833 1.348 2.267 4.081 4.628 4.081 1.446 0 1.86-.459 1.429-1.582-.334-.87-.607-1.995-.607-2.5 0-1.196-4.711-1.195-5.45.001m8.45 1.096c-1.333.876-1.333 1.094 0 1.97 1.834 1.204 2.14 1.213 3.878.111 1.52-.962.694-3.105-1.187-3.081-.655.009-1.866.459-2.691 1m88 9.485c0 .825.675 1.5 1.5 1.5s1.5-.675 1.5-1.5-.675-1.5-1.5-1.5-1.5.675-1.5 1.5m-8.75 1.468c-4.762 2.934-4.139 4.536 2.211 5.687 4.446.806 5.562.728 6.003-.423.299-.777.215-1.934-.184-2.572-.4-.638-.739-1.835-.754-2.66-.039-2.266-3.626-2.281-7.276-.032M46.097 24.383c-1 1.205-.846 1.681.838 2.582 2.233 1.195 2.841-.193 1.211-2.762-.661-1.043-1.063-1.008-2.049.18M106.5 26c.34.55.816 1 1.059 1s.441-.45.441-1-.477-1-1.059-1-.781.45-.441 1m-69.161 1.816c-.85.546-1.041 3.289-.422 6.056.045.205.758-.187 1.583-.872 2.599-2.157 1.534-6.914-1.161-5.184m60.331.601c-.299.78.14 1.68.975 2 2.577.989 3.355.661 3.355-1.417 0-2.338-3.477-2.806-4.33-.583m-39.048 2.408c-.443 1.279-.539 2.592-.213 2.917 1.036 1.037 1.765-.492 1.385-2.906l-.368-2.336-.804 2.325M56.9 38.606c-1.791 1.907-2.943 2.324-5.106 1.849-2.138-.47-2.794-.243-2.794.966 0 .868.563 1.646 1.25 1.727.688.081 1.925.24 2.75.352.825.112 2.048.271 2.719.352.697.085.951.844.594 1.776-.399 1.039.211 2.259 1.687 3.372 2.405 1.814 2.195 5.663-.258 4.741-.683-.257-2.312-.802-3.62-1.212l-2.378-.745 1.878 2.566c1.033 1.411 2.553 2.377 3.378 2.147.825-.23 2.73-.63 4.234-.889 4.69-.806 5.193-1.693 2.276-4.018-2.037-1.625-2.838-3.324-3.238-6.866-.322-2.86-.077-5.254.624-6.099 2.173-2.618-1.537-2.636-3.996-.019m105.913.077c.721.289 1.584.253 1.916-.079.332-.332-.258-.568-1.312-.525-1.165.048-1.402.285-.604.604m-52.804 2.023C104.553 44.528 99 52.63 99 56.77c0 1.297.316 1.254 2-.27 1.965-1.779 2-1.747 2 1.845 0 2.01.035 3.992.077 4.405.043.413-.745 1.2-1.75 1.75-2.868 1.57-3.295 2.639-3.312 8.285-.014 5.05.078 5.236 2.071 4.169 2.404-1.286 4.095-.313 1.885 1.085-1.285.813-1.28.932.039.946 1.697.017 6.99-4.545 6.99-6.025 0-1.394-1.738-1.178-4.362.542l-2.292 1.501.932-5.251c.513-2.889 1.336-5.927 1.83-6.752.493-.825 1.326-2.489 1.85-3.698.524-1.208 2.044-2.912 3.378-3.786 2.411-1.58 5.426-9.429 4.807-12.516-.65-3.246-2.558-4.098-5.134-2.294M37.5 43c-.34.55-.141 1 .441 1S39 43.55 39 43s-.198-1-.441-1-.719.45-1.059 1m119.127-.287c-3.405.875-.713 12.287 2.899 12.287.798 0 1.452 1.791 1.733 4.75.249 2.612.948 6.253 1.553 8.09.935 2.839.876 3.254-.394 2.767-2.756-1.058-2.829 2.457-.103 4.984 3.643 3.378 7.37 3.22 8.055-.341.881-4.576.48-19.623-.576-21.616-1.199-2.264-9.989-11.681-10.751-11.518-.299.064-1.386.332-2.416.597m11.487 4.924c1.263 1.523 3.886 1.846 3.886.48 0-.486-1.129-1.1-2.509-1.363-2.03-.389-2.293-.22-1.377.883m34.262-.861c-1.272.819-.202 4.596 1.62 5.722 1.614.997 2.488-.205 1.254-1.724-.569-.701-1.196-2.05-1.392-2.998-.208-.999-.83-1.419-1.482-1m14.084.85c-.909 1.447-1.323 1.48-3.31.264-2.025-1.239-2.43-1.176-3.732.58-1.324 1.787-1.259 2.045.7 2.769 2.293.848 8.593.037 9.361-1.205.251-.407-.091-1.487-.761-2.4-1.132-1.545-1.291-1.545-2.258-.008m-144.71.454C68.947 49.713 69.719 51 73.5 51c2.833 0 3.5-.381 3.5-2 0-2.197-2.35-2.609-5.25-.92m-39.247.916c-.937 1.515 4.288 3.613 5.637 2.264.597-.597.783-1.575.414-2.173-.842-1.362-5.225-1.428-6.051-.091m55.942 2.065c-1.597 1.764-1.655 2.194-.405 2.985 3.239 2.048 5.57.451 4.457-3.055-.802-2.526-1.717-2.51-4.052.07M80 52.287c0 .973.879 1.451 2.499 1.357C84.774 53.513 86.23 52 84.082 52c-.505 0-1.63-.273-2.5-.607-1.01-.387-1.582-.064-1.582.894m139 5.63c0 .504.563 1.121 1.25 1.371 2.349.855-.735 4.212-3.869 4.212-2.226 0-2.954.511-3.201 2.25-.204 1.436.2 2.25 1.116 2.25.789 0 2.62.933 4.069 2.073 2.618 2.059 3.005 1.892 2.713-1.17-.083-.878.54-2.171 1.385-2.872 1.967-1.632 1.945-3.479-.078-6.566C220.77 56.999 219 56.19 219 57.917M35.75 59.364C32.031 60.345 30.618 62 33.5 62c.825 0 1.5.45 1.5 1 0 1.54 1.541 1.194 4.139-.929 3.185-2.603 1.455-3.985-3.389-2.707m14.548 2.924c-1.761.536-3.361 1.702-3.557 2.593C46.394 66.468 51.472 72 53.276 72 55.203 72 60 76.218 60 77.913c0 1.884-3.293 5.461-4.196 4.558-.537-.538-4.042-1.464-6.785-1.793-.866-.104-1.534.701-1.607 1.936-.194 3.26-1.438 4.612-3.7 4.021-2.403-.628-4.633 1.78-4.68 5.056-.048 3.325 1.484 3.587 4.778.816C45.448 91.128 47.523 90 48.419 90c1.012 0 1.859-1.138 2.231-3 .79-3.948 2.811-3.802 6.6.478 2.506 2.831 3.56 3.361 5.664 2.849 1.422-.346 2.946-1.236 3.386-1.978 1.376-2.322 2.67-1.55 9.478 5.651 3.64 3.85 6.978 7 7.42 7 .441 0 .802-1.334.802-2.965 0-1.941.69-3.334 2-4.035 2.208-1.181 2.72-3.181.75-2.925-4.211.546-5.273-2.966-1.789-5.915 1.198-1.014 2.074-3.192 2.25-5.593.254-3.453-.017-4.021-2.211-4.651-1.375-.394-4.157-.761-6.183-.816-4.019-.109-5.528-2.285-4.29-6.185.624-1.966.528-2.001-1.683-.605-3.202 2.022-13.541 2.76-14.946 1.067-.588-.709-.82-1.694-.515-2.188.305-.494-.443-1.793-1.664-2.887-1.842-1.65-2.763-1.822-5.421-1.014m122.458 13.886c.382 1.463.193 1.913-.598 1.423-.637-.393-1.158-.207-1.158.414 0 1.469 4.224.85 4.732-.693.214-.651-.494-1.655-1.573-2.233-1.714-.917-1.892-.779-1.403 1.089M32 79.5c0 .825.45 1.5 1 1.5s1-.675 1-1.5-.45-1.5-1-1.5-1 .675-1 1.5m36.323.101c-.785 2.046 1.677 3.644 3.406 2.209.976-.81 1.016-1.413.161-2.443-1.505-1.814-2.814-1.728-3.567.234M163 81c1.293.835 1.266.971-.191.985-2.732.024-3.018 1.743-.655 3.944l2.199 2.048-2.346 5.009c-1.291 2.754-2.039 5.315-1.664 5.69.375.375 2.163-.024 3.972-.887 2.763-1.317 3.482-2.4 4.488-6.755.658-2.853 1.197-6.036 1.197-7.075 0-2.171-2.815-3.966-6.184-3.944-1.862.013-2.022.206-.816.985m9.384 3.442c-.304.792-.377 2.255-.161 3.25.244 1.129.586.587.911-1.442.544-3.406.191-4.259-.75-1.808m-72.264 2.84C99.991 91.353 102.299 98 103.842 98c.519 0 1.222-.725 1.562-1.611.47-1.225.196-1.451-1.143-.941-1.412.538-1.513.421-.511-.589 1.635-1.647 1.589-2.859-.108-2.859-.77 0-1.8-1.838-2.38-4.25l-1.022-4.25-.12 3.782m110.954 3.129c-.731.881-.805 1.637-.197 2.013 1.158.716 6.123-1.38 6.123-2.585 0-1.392-4.67-.942-5.926.572M139.313 98.5c.349 3.292.056 5.854-.856 7.5-1.771 3.195-1.786 4-.074 4 .761 0 1.62-.902 1.908-2.004.332-1.272 1.069-1.795 2.015-1.432 2.17.833 2.981-1.169 1.538-3.793-.686-1.249-1.338-2.808-1.449-3.464-.111-.656-.969-2.231-1.906-3.5-1.672-2.261-1.695-2.208-1.176 2.693M215 96c0 .55.927 1 2.059 1 1.132 0 1.781-.45 1.441-1-.34-.55-1.266-1-2.059-1-.793 0-1.441.45-1.441 1m-150.435.895c-.305.493.119 1.153.941 1.469.907.348 1.494-.003 1.494-.895 0-1.618-1.563-1.986-2.435-.574M102 101.393c0 .216.698.661 1.552.989.89.341 1.291.173.941-.393-.587-.951-2.493-1.406-2.493-.596m88.079 1.19c.048 1.165.285 1.402.604.605.289-.722.253-1.585-.079-1.917-.332-.332-.568.258-.525 1.312m-13.519 3.32c-.307.496.792 1.373 2.441 1.948 3.121 1.087 3.86.41 1.799-1.651-1.42-1.42-3.457-1.563-4.24-.297M221.5 107c.34.55 1.041 1 1.559 1s.941-.45.941-1-.702-1-1.559-1-1.281.45-.941 1m-162.755 1.221c-.351.916.173 2.299 1.233 3.259 1.739 1.574 1.749 1.834.183 4.568-.914 1.594-2.111 3.07-2.661 3.28-.55.209.125.185 1.5-.053 1.375-.239 2.881-1.111 3.347-1.939.577-1.025 1.652-1.302 3.376-.869 2.062.517 2.414.333 1.903-.998-.344-.898-.626-2.271-.626-3.051 0-.892-1.056-1.418-2.847-1.418-1.964 0-3.15-.678-3.822-2.185-.809-1.813-1.079-1.914-1.586-.594m16.993-.529c-.969.253-1.505.875-1.191 1.384.855 1.384 2.166 1.116 2.815-.576.316-.825.477-1.448.357-1.384-.121.064-1.012.323-1.981.576M146.5 116c.34.55 1.379.993 2.309.985 1.457-.014 1.484-.15.191-.985-1.958-1.266-3.282-1.266-2.5 0m-6.105 3.171c-.253.408-1.074.506-1.826.217-1.369-.525-3.212 1.302-2.266 2.248.643.644 8.697-1.745 8.697-2.58 0-.885-4.05-.784-4.605.115M49 120c0 .55.477 1 1.059 1s.781-.45.441-1-.816-1-1.059-1-.441.45-.441 1m96.89 5.363c-2.074 1.828-2.379 2.615-1.487 3.835 1.384 1.893 2.951.513 3.953-3.482.817-3.255.826-3.253-2.466-.353M190 124.5c0 1.03.655 1.52 1.75 1.31 2.108-.406 1.975-2.181-.197-2.633-.906-.189-1.553.362-1.553 1.323m-140.25.162c.688.278 1.813.278 2.5 0 .688-.277.125-.504-1.25-.504s-1.937.227-1.25.504m143.82 71.59c-1.858 2.836-1.235 5.402 1.522 6.277 2.272.721 2.527 3.296.408 4.109-1.924.739-1.948 2.362-.035 2.362 1.98 0 3.791-3.618 3.023-6.039-.343-1.08-1.574-2.472-2.736-3.094-2.048-1.096-2.055-1.172-.236-2.502 1.368-1.001 1.578-1.671.773-2.476-.804-.804-1.541-.435-2.719 1.363m-4.018.664c-.357.578-.383 2.745-.059 4.817l.591 3.767-2.292-4-2.292-4-.5 5.758-.5 5.757-1.849-4.507c-1.676-4.087-3.651-5.996-3.651-3.53 0 2.093 5.486 12.027 6.464 11.706.57-.187 1.266-2.105 1.548-4.262l.512-3.922 1.186 3.25c2.141 5.868 3.474 3.908 2.72-4-.748-7.859-.901-8.415-1.878-6.834m-18.802 5.164c-2.704 1.575-2.077 2.73 1.393 2.567 4.146-.194 4.66 1.611.866 3.043-1.967.743-3.009 1.83-3.009 3.141 0 5.065 2.653 6.496 7.264 3.919 1.23-.687 2.379-1.318 2.554-1.401.175-.084-.389-2.533-1.253-5.443-1.99-6.7-3.887-8.114-7.815-5.826m2.354 7.834c-1.679 1.063-.748 4.086 1.258 4.086 1.336 0 2.638-2.014 2.638-4.082 0-1.159-2.068-1.161-3.896-.004m25.056.326c-1.598 1.598-1.456 2.811.253 2.155.83-.319 1.606.209 1.884 1.282.319 1.236.508.957.587-.868.134-3.114-1.056-4.237-2.724-2.569m-2.78 7.556c-2.334 2.813-4.41 4.09-8.25 5.074-3.121.8-5.13 1.866-5.13 2.722 0 1.681.387 1.706 5.276.348 2.21-.613 3.505-1.485 3.124-2.101-.416-.674.081-.821 1.38-.409 2.159.685 5.249-2.649 6.656-7.18.939-3.024.589-2.847-3.056 1.546m3.788 6.95c-2.67 2.694-3.614 3.128-4.75 2.186-1.118-.928-1.418-.856-1.418.339 0 1.82-2.619 2.985-5.007 2.227-1.409-.447-1.633-.065-1.222 2.083.462 2.417-.871 4.36-3.021 4.404-1.543.031-.681-2.859 1-3.354 1.363-.402 1.308-.471-.25-.313-2.263.229-3.524 4.691-1.32 4.668 3.616-.037 5.572-1.218 5.087-3.072-.275-1.053.002-1.914.616-1.914.615 0 1.17.787 1.235 1.75.065.963.462.4.882-1.25.724-2.844.775-2.87.981-.5l.218 2.5.801-2.5c.534-1.667.834-1.917.9-.75.125 2.193 1.001 2.202 4.127.041 4.272-2.953 5.11-4.194 4.787-7.092l-.314-2.816-3.332 3.363M172 222.455c0 .67 6.095 3.783 6.539 3.34.194-.194.039-.833-.343-1.42-.718-1.101-6.196-2.798-6.196-1.92m23.079 8.128c.048 1.165.285 1.402.604.605.289-.722.253-1.585-.079-1.917-.332-.332-.568.258-.525 1.312m-15.778 2.643c-.541.701-.685 2.399-.319 3.774.621 2.338.7 2.273 1.222-1 .643-4.026.471-4.553-.903-2.774m-5.177 2.847c-.618 1.774-1.124 3.321-1.124 3.438 0 .116 1.138-.006 2.529-.272 2.038-.389 2.404-.895 1.887-2.611-1.116-3.707-2.133-3.878-3.292-.555" fill="#1976D2" fill-rule="evenodd"/><path fill-opacity=".584" d="M121 25c-.901.582-1.025.975-.309.985.655.008 1.469-.435 1.809-.985.767-1.242.421-1.242-1.5 0m10.542 1.062c-2.176.982-4.428 2.429-5.004 3.216-.575.787-2.056 1.752-3.292 2.144-1.723.547-2.246.319-2.246-.977 0-1.334-.294-1.445-1.398-.53-.769.638-2.351 1.344-3.516 1.568-1.831.353-6.004 4.098-10.204 9.159-.673.811 1.967-.127 5.866-2.084 3.9-1.957 8.139-3.551 9.421-3.543 1.689.011 1.957.253.974.875-1.608 1.02-.848 1.597 4.658 3.54 3.443 1.215 4.849 1.162 11.717-.434 8.767-2.038 17.487-2.012 20.184.062 1.068.821.885.353-.452-1.153-1.238-1.394-2.25-3.007-2.25-3.585 0-.577-.885-2.176-1.967-3.551-1.082-1.376-1.755-2.714-1.495-2.974.521-.521-8.02-2.489-13.538-3.119-2.033-.233-5.159.348-7.458 1.386M110.5 31.765c-.55.404-1.661 1.635-2.47 2.735-1.085 1.477-.758 1.366 1.25-.424 2.448-2.182 3.193-3.105 2.47-3.061-.138.009-.7.346-1.25.75m74.167 7.902c-1.682 1.681-.493 2.961 2.363 2.542 2.78-.408 2.883-.556 1.25-1.795-2.04-1.548-2.68-1.68-3.613-.747m7.146 7.016c.721.289 1.584.253 1.916-.079.332-.332-.258-.568-1.312-.525-1.165.048-1.402.285-.604.604m-3.798 26.067c.037 1.778 1.747 3.444 2.419 2.357.376-.609.406-1.557.066-2.107-.721-1.166-2.507-1.346-2.485-.25m-75.765 3.946c-1.237.244-2.25.816-2.25 1.272 0 .456-3.152 1.146-7.004 1.532-3.852.387-7.246 1.095-7.542 1.574-.295.478.208 2.007 1.119 3.398C97.58 86.007 97.792 87 97.115 87c-1.416 0-1.419 3.034-.005 5 .91 1.266.991 1.227.516-.25-.31-.963-.127-1.75.405-1.75.533 0 .971.787.973 1.75.002.963.856 3.147 1.897 4.855 1.998 3.277 5.522 4.616 15.599 5.93 6.22.811 9.335-1.291 13.164-8.884 4.327-8.579 6.17-8.745 10.023-.901 3.713 7.557 7.612 9.676 15.417 8.38l5.396-.896-6.615-.117c-8.34-.147-11.229-2.168-13.36-9.346-1.389-4.675-1.377-5.277.132-6.945.909-1.004 2.328-1.826 3.153-1.826 1.208 0 1.132.406-.392 2.09-1.787 1.975-1.796 2.161-.155 3.361.955.698 1.737 1.686 1.737 2.195 0 1.526 4.309 1.045 6.027-.673.879-.879 1.42-2.132 1.202-2.785-.218-.654.317-1.188 1.188-1.188 2.747 0 1.715-1.812-1.426-2.502-4.154-.912-2.758-2.477 2.318-2.598 2.305-.055 5.316-.46 6.691-.9l2.5-.801-2.809-.099c-1.545-.055-2.562-.499-2.26-.988.301-.488-2.372-.904-5.941-.925-3.57-.021-6.49.379-6.49.888s.787.952 1.75.984c.963.033-.95 1.08-4.25 2.328-6.025 2.277-11.325 2.476-14.386.539-1.293-.818-1.166-.899.636-.406 1.45.396 2.25.176 2.25-.619 0-.679-.302-.933-.67-.564-.369.368-1.606.061-2.75-.683-2.224-1.447-12.606-2.692-16.33-1.958m54.25 3.177c2.752.585 3.025 1.022 3.301 5.292.414 6.405-1.903 11.543-6.014 13.328-2.039.887-2.594 1.444-1.46 1.468 3.368.072 7.368-5.176 8.65-11.35 1.063-5.12 1.002-5.977-.545-7.687-.958-1.058-2.91-1.871-4.337-1.806-2.46.112-2.439.152.405.755m-62 .865c-4.799.702-5.797 2.103-5.185 7.275C100.5 98.014 103.206 100 115.649 100c5.951 0 7.722-.371 9.298-1.947 2.174-2.174 4.41-9.299 3.728-11.878-.303-1.147-.48-.953-.559.617-.064 1.26-.91 3.144-1.88 4.185-2.147 2.304-7.024 4.272-8.432 3.402-.565-.349-1.397-.037-1.849.693-.493.799-.702-.172-.522-2.436.242-3.05-.154-4.062-2.085-5.327-2.79-1.829-1.871-3.662 2.443-4.873l2.709-.76-3-.72c-3.356-.805-6.553-.868-11-.218m88.193.962c-2.521.654-1.685 3.727 1.122 4.127 3.144.447 5.592-1.631 4.075-3.46-1.155-1.392-1.987-1.499-5.197-.667m-97.149 24.495c-1.941 1.126-1.941 1.141 0 1.981 1.297.561.681.656-1.829.283-2.082-.31-5.329-.005-7.216.678-2.842 1.027-3.223 1.49-2.223 2.696 1.015 1.223.85 1.342-1.034.744-2.838-.901-6.242.141-6.242 1.911 0 .744-1.345 1.648-2.989 2.009-3.17.697-5.114 2.503-2.692 2.503 2.046 0 4.162 2.673 2.543 3.213-.737.245-.944 1.131-.522 2.23.583 1.52 1.429 1.723 5.084 1.222 3.221-.441 4.711-.208 5.613.88.928 1.118 1.56 1.204 2.585.354.746-.619 1.093-1.551.772-2.07-.62-1.003 9.182-11.254 11.443-11.966.973-.306 1.147-1.432.638-4.142-.759-4.049-1.018-4.215-3.931-2.526m33.328 2.555c-1.243 1.586-1.208 1.621.378.378.963-.755 1.75-1.543 1.75-1.75 0-.823-.821-.294-2.128 1.372m-31.724 8.043c-1.182 1.658-2.148 3.44-2.148 3.958 0 .519-.866 1.942-1.925 3.162-1.887 2.177-2.183 5.485-.703 7.879 1.025 1.659.667 1.573-5.851-1.411-4.387-2.008-6.751-2.503-10.143-2.12-3.487.393-4.201.231-3.375-.765.758-.913.625-1.425-.477-1.848-4.17-1.6-6.327 2.862-3.878 8.023 1.214 2.558 1.327 3.962.509 6.309-.792 2.271-.754 3.02.151 3.02.662 0 1.704 1.238 2.315 2.75 5.093 12.606 5.279 13.25 3.822 13.25-.795 0-1.479.563-1.522 1.25-.042.688-.277 2.15-.523 3.25s-.717 4.287-1.046 7.082l-.599 5.082-2.387-2.387c-1.313-1.313-4.07-3.08-6.128-3.928-2.057-.847-4.825-2.51-6.15-3.695-2.28-2.038-2.372-2.047-1.695-.178.622 1.716.361 1.65-1.975-.5-2.462-2.265-2.596-2.292-1.573-.324.996 1.917.891 2.092-.967 1.606-1.214-.317-2.453.037-2.967.849-1.262 1.993-1.117 2.893.468 2.893 1.546 0 4.814 8.762 3.558 9.538-.44.272-1.088.03-1.439-.538-.983-1.59-2.651-.051-2.038 1.88.469 1.479-.207 1.704-4.963 1.654-8.802-.092-9.436.552-4.459 4.526 2.37 1.892 6.336 4.565 8.815 5.94 3.156 1.75 4.554 3.188 4.662 4.795.086 1.263 2.142 4.354 4.569 6.87 6.774 7.021 1.077 3.301-6.765-4.417-4.778-4.703-8.22-7.201-11.12-8.07-2.311-.692-4.201-1.69-4.201-2.218s-.675-.96-1.5-.96c-1.048 0-1.5 1.056-1.5 3.5 0 1.925.351 3.5.781 3.5.429 0 1.283 1.332 1.898 2.96.893 2.367 2.032 3.19 5.689 4.111 6.469 1.629 7.849 3.61 3.131 4.495-2.424.455-3.314 1.019-2.652 1.681 1.89 1.89.201 3.722-2.489 2.699-1.709-.65-2.269-.611-1.815.124.362.586-.266 1.306-1.395 1.602-1.909.499-1.827.723 1.149 3.176 4.073 3.356 5.703 4.904 5.703 5.413 0 .655-3.428.211-4.768-.617-.677-.419-1.232-.323-1.232.214 0 .536.451 1.126 1.002 1.309.653.218.675 1.472.064 3.603-.516 1.798-.564 3.037-.107 2.755.458-.282 1.114.223 1.46 1.124.345.9.879 1.386 1.186 1.08.306-.307.005-1.609-.669-2.893l-1.227-2.336 2.181 1.937c1.199 1.065 1.966 2.495 1.705 3.177-.584 1.521 1.775 3.653 2.907 2.627.45-.407.515-.21.143.438-.427.746 3.094 3.657 9.583 7.922 12.668 8.326 13.367 8.977 11.749 10.927-1.271 1.531-3.157 2.029-2.735.722.383-1.184-2.847-5.311-3.582-4.577-.363.363-.66.135-.66-.506 0-.642-.675-1.167-1.5-1.167s-1.5-.393-1.5-.872c0-.48-2.477-2.392-5.504-4.25-3.027-1.858-7.365-5.089-9.64-7.181-2.382-2.189-4.749-3.568-5.578-3.25-.793.304-1.855.553-2.36.553-.505 0-.918 5.175-.918 11.5V256h15.98l-1.74-2.143c-.957-1.178-3.682-4.376-6.055-7.107-3.808-4.38-6.196-8.462-6.18-10.565.003-.377 1.015.972 2.25 2.998 1.235 2.026 4.862 6.638 8.06 10.25L50.129 256H196.74l1.077-5.75c.593-3.162 1.037-8.277.988-11.365-.049-3.089.183-6.057.516-6.596.334-.539-1.486.079-4.043 1.374-3.137 1.588-4.869 1.998-5.325 1.261-.43-.696-.915-.465-1.337.635-.365.95-.949 1.442-1.298 1.093-.348-.349-1.289-.091-2.091.574-1.178.978-1.817.764-3.342-1.119L180 233.778v2.611c0 2.502-.848 3.079-3.894 2.653-.766-.108-1.754.388-2.195 1.102-1.535 2.483-1.812.254-.459-3.682 1.439-4.185 2.566-4.762 3.591-1.84.541 1.542.697 1.479 1.211-.487.325-1.242 1.188-2.182 1.918-2.088 2.407.308 5.828-1.255 5.828-2.664 0-.76.45-1.383 1-1.383s1 .375 1 .833c0 .459.675.834 1.5.834s1.5-.786 1.5-1.746c0-1.272.684-1.67 2.524-1.468 1.389.153 2.77-.119 3.069-.604.3-.485.964-.623 1.476-.306.512.316.976-1.139 1.031-3.234.088-3.378.19-3.526.9-1.309.44 1.375.845 1.889.9 1.143.055-.746.725-1.117 1.49-.824 1.425.547 2.61-3.06 2.61-7.944 0-1.306.45-2.375 1-2.375s1.053-1.912 1.118-4.25c.065-2.338.462-5.6.882-7.25.649-2.552.781-2.208.882 2.309.072 3.258.504 5.07 1.118 4.691.55-.34 1-.19 1 .334s-.577 1.173-1.281 1.444c-.705.27-1.893 2.906-2.639 5.857-.747 2.951-1.805 6.49-2.353 7.865-.547 1.375-1.153 3.85-1.347 5.5-1.087 9.282-3.177 20.443-5.007 26.75-.46 1.587.461 1.75 9.889 1.75h10.397l.142-5.25c.144-5.276-2.266-14.71-4.055-15.875-.588-.383-.531-.89.147-1.309.609-.376 1.112-2.345 1.119-4.375.006-2.03.676-6.166 1.488-9.191 1.667-6.212 1.945-15.747.524-17.995-1.801-2.85-3.957 1.873-3.992 8.745-.018 3.479-.475 6.25-1.032 6.25-.556 0-1-2.68-1-6.04 0-4.614.508-6.728 2.151-8.951 1.947-2.633 2.095-3.744 1.558-11.709-.326-4.84-1.472-11.275-2.545-14.3-2.491-7.016-9.488-19.528-10.023-17.923-.256.767-1.108.328-2.287-1.178-2.57-3.279-1.695-1.086 5.231 13.11 3.253 6.669 5.915 12.469 5.915 12.891 0 .422-.655.767-1.456.767-.801 0-1.233-.362-.96-.804.896-1.448-8.171-16.855-9.933-16.878-.634-.009-.479-.44.344-.961 1.283-.811 1.212-1.159-.5-2.453-1.428-1.079-1.583-1.516-.545-1.539 2.775-.061-.659-2.261-4.122-2.641-2.067-.227-4.275-1.429-5.828-3.171-5.299-5.947-9.993-11.747-9.996-12.353-.002-.349-.929-.876-2.059-1.171-2.943-.77-4.409 3.459-3.048 8.788.564 2.209 1.316 5.591 1.671 7.516.354 1.925 1.766 7.325 3.138 12 3.826 13.039 3.807 12.921 1.566 10.173-1.043-1.281-3.389-6.906-5.212-12.5-1.822-5.595-3.954-11.431-4.736-12.968l-1.422-2.795-4.201 3.289-4.201 3.289 4.486-5.494c2.468-3.022 4.767-5.719 5.111-5.994 1.667-1.336 4.085-7.439 3.079-7.775-.719-.239-.89-2.628-.504-7.044.401-4.58.26-6.366-.447-5.681-.567.55-1.247 1.9-1.512 3-.265 1.1-.536-.25-.603-3-.066-2.75-.628-6.8-1.247-9l-1.126-4-1.669 5c-.918 2.75-2.796 6.8-4.174 9-1.378 2.2-3.039 5.841-3.692 8.091-1.908 6.575-5.25 10.675-11.203 13.744-4.955 2.555-6.191 2.781-12.499 2.294-8.956-.692-14.167-2.211-14.167-4.13 0-1.733 3.285-1.975 7.102-.524 4.935 1.877 2.498-.51-4.57-4.475-3.922-2.2-9.052-5.687-11.401-7.75-4.881-4.286-5.166-4.385-5.735-2-.3 1.258-.957.603-2.336-2.329-1.063-2.26-2.471-3.895-3.156-3.667-1.704.568-1.557-1.244.221-2.719.989-.821 1.266-2.226.862-4.372-1.066-5.663-1.816-6.18-4.172-2.87m49.383 2.173c-1.746 1.929-1.716 1.947 1.588 1 1.852-.531 3.51-.966 3.683-.966.174 0 .038-.45-.302-1-.973-1.575-3.032-1.175-4.969.966m-26.864.701c-.367.366-.667 1.213-.667 1.881 0 1.495 17.433 2.986 20.69 1.77 1.499-.56.065-.818-4.544-.818-4.729 0-7.529-.521-9.405-1.75-2.791-1.829-4.945-2.213-6.074-1.083M65.58 122.19c-2.212 3.158-1.339 3.264 2.942.359 3.593-2.438 3.644-2.549 1.174-2.549-1.524 0-3.211.898-4.116 2.19m-1.013 23.645c-.603 1.862-1.244 2.212-3.17 1.729-2.547-.64-8.397 1.773-8.397 3.462 0 .536 1.73.974 3.845.974 4.058 0 7.95 2.904 6.669 4.977-.464.751.143.896 1.902.455 2.332-.585 2.584-.367 2.584 2.237 0 1.649-.858 3.621-2 4.599-1.1.942-2 2.082-2 2.534 0 .777 5.413 5.198 6.364 5.198.958 0-1.067-12.747-3.654-23-1.187-4.701-1.498-5.161-2.143-3.165m128.939 9.171c.998 1.104 2.032 1.789 2.297 1.524.672-.672-1.822-3.53-3.08-3.53-.568 0-.216.903.783 2.006M160.252 167.5c.011 2.2.216 2.982.455 1.738.239-1.244.23-3.044-.02-4s-.446.062-.435 2.262m.827 8.083c.048 1.165.285 1.402.604.605.289-.722.253-1.585-.079-1.917-.332-.332-.568.258-.525 1.312m-12.191 13.167c-.062 3.713-.175 9.701-.25 13.307-.076 3.606.146 7.881.494 9.5.347 1.619.685-4.369.75-13.307.065-8.937-.107-16.25-.382-16.25s-.551 3.037-.612 6.75m63.191-1.167c.048 1.165.285 1.402.604.605.289-.722.253-1.585-.079-1.917-.332-.332-.568.258-.525 1.312m-19.03 7.858c-.657.792-1.837 1.194-2.622.893-1.055-.405-1.444.327-1.49 2.809-.057 3.015-.156 3.128-.968 1.107-.498-1.238-1.655-2.25-2.573-2.25-1.407 0-1.574.742-1.068 4.75l.599 4.75-1.987-3.75c-1.093-2.062-2.652-3.75-3.464-3.75-1.969 0-1.938.143 1.538 7.029 3.516 6.964 5.966 7.867 6.025 2.221l.039-3.75 1.413 3.25c2.108 4.851 3.509 3.99 3.509-2.156 0-5.404.001-5.405 2.492-4.25 3.03 1.406 3.292 3.656.425 3.656-1.223 0-1.911.517-1.667 1.25.229.688 1.504 1.25 2.833 1.25 2.063 0 2.462-.539 2.723-3.685.247-2.969-.127-3.917-1.93-4.881-2.108-1.129-2.134-1.272-.456-2.499 1.881-1.376 1.367-3.435-.857-3.435-.725 0-1.856.648-2.514 1.441m18.203 2.059c.011 2.2.216 2.982.455 1.738.239-1.244.23-3.044-.02-4s-.446.062-.435 2.262m-47.157 3c-.048.55.777 3.925 1.832 7.5 1.056 3.575 1.948 5.825 1.983 5 .072-1.72-3.682-14.021-3.815-12.5m5.443 1.848c-2.412 1.764-1.156 4.053 1.457 2.655 2.644-1.415 4.005-1.246 4.005.497 0 .825-.605 1.5-1.345 1.5s-2.161.902-3.159 2.004c-1.506 1.664-1.618 2.432-.663 4.528 1.556 3.417 3.095 3.814 7.558 1.949 2.913-1.217 3.624-1.973 3.088-3.281-.383-.935-1.144-3.275-1.691-5.2-.548-1.925-1.454-4.062-2.014-4.75-1.338-1.642-4.923-1.593-7.236.098m-130.805 7.776c.679.684 1.486.991 1.793.683.308-.308-.247-.867-1.233-1.243-1.425-.542-1.54-.428-.56.56m48.462 1.376c.02 1.65.244 2.204.498 1.231.254-.973.237-2.323-.037-3-.274-.677-.481.119-.461 1.769m86.909-1.575c-.84.526-1.125 1.577-.717 2.641.478 1.247.992 1.455 1.74.707 1.577-1.577.706-4.428-1.023-3.348m22.936.527c-.663.799-.94 2.287-.616 3.307.394 1.244-.32 2.697-2.168 4.412-4.863 4.512-12.578 6.007-19.158 3.713-4.061-1.415-4.847-.659-2.036 1.96 2.934 2.733 11.833 3.841 17.041 2.122 3.897-1.286 8.218-5.764 9.166-9.498.414-1.632.519-1.669.615-.218.198 2.981 2.116 1.922 2.116-1.168 0-5.697-2.296-7.84-4.96-4.63M149.232 220c0 1.925.206 2.713.457 1.75.252-.963.252-2.537 0-3.5-.251-.963-.457-.175-.457 1.75m-116.957 4c-.083 1.1.298 2 .846 2s.719-.45.379-1c-.34-.55-.141-1 .441-1s1.059.525 1.059 1.167c0 .641.289.877.643.524.675-.676-1.41-3.691-2.553-3.691-.365 0-.732.9-.815 2m116.225 1c-.34.55-.141 1 .441 1s1.059-.45 1.059-1-.198-1-.441-1-.719.45-1.059 1m-106 7c-.34.55-.141 1 .441 1S44 232.55 44 232s-.198-1-.441-1-.719.45-1.059 1m141.043 1.931c-.317.512-.118 1.213.441 1.559.559.345 1.016-.074 1.016-.931 0-1.757-.6-2.015-1.457-.628m-48.512 6.569c0 .55.436 1.675.969 2.5.533.825.969 1.05.969.5s-.436-1.675-.969-2.5c-.533-.825-.969-1.05-.969-.5m37.841 7c.54 1.1 1.714 2.9 2.61 4l1.628 2-.982-2c-.54-1.1-1.714-2.9-2.61-4l-1.628-2 .982 2" fill="#1976D2" fill-rule="evenodd"/></svg>